<?xml version="1.0" standalone="no"?>
<!DOCTYPE svg PUBLIC "-//W3C//DTD SVG 20010904//EN"
 "http://www.w3.org/TR/2001/REC-SVG-20010904/DTD/svg10.dtd">
<svg version="1.0" xmlns="http://www.w3.org/2000/svg"
 width="1080.000000pt" height="1080.000000pt" viewBox="0 0 1080.000000 1080.000000"
 preserveAspectRatio="xMidYMid meet">

<g transform="translate(0.000000,1080.000000) scale(0.100000,-0.100000)"
fill="#000000" stroke="none">
<path d="M0 5400 l0 -5400 5400 0 5400 0 0 5400 0 5400 -5400 0 -5400 0 0
-5400z m7533 3727 c49 -21 98 -67 118 -112 17 -37 19 -76 19 -528 0 -550 3
-529 -75 -567 -41 -20 -67 -20 -1483 -20 l-1442 0 -198 128 c-553 360 -632
411 -632 407 0 -3 140 -180 310 -395 l310 -389 0 -469 0 -469 -287 -195 c-802
-544 -1034 -699 -1059 -708 -21 -8 -32 -7 -50 5 l-24 16 2 1558 3 1559 39 56
c54 78 113 117 190 126 34 4 998 8 2144 9 1727 1 2088 -1 2115 -12z m-2303
-2912 l0 -454 -82 -41 c-132 -67 -418 -239 -650 -391 l-38 -24 0 -340 0 -340
-281 -379 c-154 -208 -279 -380 -277 -381 2 -2 176 127 388 286 l385 289 1420
-3 c1419 -2 1420 -2 1465 -23 54 -25 97 -72 105 -117 3 -18 5 -253 3 -524 -3
-481 -3 -492 -24 -520 -31 -42 -79 -70 -137 -83 -36 -7 -674 -10 -2122 -8
l-2070 3 -69 23 c-54 19 -80 35 -121 76 -91 91 -86 17 -83 1097 l3 944 33 60
c27 50 49 73 140 141 756 572 1405 959 1887 1125 61 21 113 38 118 39 4 0 7
-205 7 -455z m2364 -3798 c75 -71 75 -140 1 -205 l-44 -39 -906 -7 c-498 -3
-910 -4 -915 -1 -6 4 -10 70 -10 151 l0 144 915 0 915 0 44 -43z"/>
</g>
</svg>
